<?xml version="1.0" encoding="UTF-8"?>
<svg width="326px" height="318px" viewBox="0 0 326 318" version="1.1" xmlns="http://www.w3.org/2000/svg" xmlns:xlink="http://www.w3.org/1999/xlink">
    <!-- Generator: Sketch 44.1 (41455) - http://www.bohemiancoding.com/sketch -->
    <title>correct_answers</title>
    <desc>Created with Sketch.</desc>
    <defs></defs>
    <g id="Symbols" stroke="none" stroke-width="1" fill="none" fill-rule="evenodd">
        <g id="correct_answers">
            <g>
                <path d="M163.363256,1.59739535 L163.363256,1.59739535 C249.83707,1.59739535 320.588372,72.3486977 320.588372,158.822512 C320.588372,245.296326 249.83707,316.047628 163.363256,316.047628 C76.8894419,316.047628 6.13813953,245.296326 6.13813953,158.822512 C6.13813953,72.3486977 76.8894419,1.59739535 163.363256,1.59739535" id="Fill-1" fill="#8E44AD"></path>
                <path d="M195.451674,63.5556279 L93.832186,63.5556279 C91.5026512,63.5556279 88.9290698,65.4562326 88.9290698,67.7857674 L88.9290698,249.85186 C88.9290698,252.181395 91.5026512,254.089395 93.832186,254.089395 L233.559907,254.089395 C235.889442,254.089395 237.124465,252.181395 237.124465,249.85186 L237.124465,108.00907 L195.451674,63.5556279" id="Fill-2" fill="#F8F8F8"></path>
                <path d="M199.689209,108.00907 C197.359674,108.00907 194.786093,106.108465 194.786093,103.77893 L194.786093,63.5556279 L237.790047,108.00907 L199.689209,108.00907" id="Fill-3" fill="#FFFFFF"></path>
                <path d="M118.569628,82.6060465 C110.101953,82.6060465 102.307256,90.1936744 102.307256,99.5413953 L118.569628,99.5413953 L118.569628,82.6060465" id="Fill-4" fill="#C1C1C1"></path>
                <path d="M120.692093,84.7211163 L120.692093,101.656465 L104.422326,101.656465 C104.422326,111.011581 112.002558,118.599209 121.357674,118.599209 C130.712791,118.599209 137.960233,111.011581 137.960233,101.656465 C137.960233,92.3087442 131.274837,84.7211163 120.692093,84.7211163" id="Fill-5" fill="#C1C1C1"></path>
                <path d="M120.692093,201.160884 L120.692093,218.096233 L104.422326,218.096233 C104.422326,227.451349 112.002558,235.031581 121.357674,235.031581 C130.712791,235.031581 137.960233,227.451349 137.960233,218.096233 C137.960233,208.741116 131.274837,201.160884 120.692093,201.160884" id="Fill-6" fill="#C1C1C1"></path>
                <polygon id="Fill-7" fill="#C1C1C1" points="148.195395 91.0737209 186.303628 91.0737209 186.303628 86.8435814 148.195395 86.8435814"></polygon>
                <polygon id="Fill-8" fill="#C1C1C1" points="124.914837 156.707442 218.066651 156.707442 218.066651 152.469907 124.914837 152.469907"></polygon>
                <polygon id="Fill-9" fill="#C1C1C1" points="148.195395 99.5413953 186.303628 99.5413953 186.303628 97.4263256 148.195395 97.4263256"></polygon>
                <polygon id="Fill-10" fill="#C1C1C1" points="124.914837 163.052651 201.123907 163.052651 201.123907 160.937581 124.914837 160.937581"></polygon>
                <polygon id="Fill-11" fill="#C1C1C1" points="148.195395 209.628558 215.944186 209.628558 215.944186 207.513488 148.195395 207.513488"></polygon>
                <polygon id="Fill-12" fill="#C1C1C1" points="148.195395 215.981163 215.944186 215.981163 215.944186 213.866093 148.195395 213.866093"></polygon>
                <polygon id="Fill-13" fill="#C1C1C1" points="148.195395 222.333767 215.944186 222.333767 215.944186 220.218698 148.195395 220.218698"></polygon>
                <polygon id="Fill-14" fill="#C1C1C1" points="148.195395 228.678977 215.944186 228.678977 215.944186 226.563907 148.195395 226.563907"></polygon>
                <polygon id="Fill-15" fill="#C1C1C1" points="148.195395 235.031581 215.944186 235.031581 215.944186 232.916512 148.195395 232.916512"></polygon>
                <polygon id="Fill-16" fill="#C1C1C1" points="124.914837 169.405256 213.829116 169.405256 213.829116 167.290186 124.914837 167.290186"></polygon>
                <polygon id="Fill-17" fill="#C1C1C1" points="124.914837 175.75786 175.720884 175.75786 175.720884 173.642791 124.914837 173.642791"></polygon>
                <polygon id="Fill-18" fill="#C1C1C1" points="148.195395 103.77893 186.303628 103.77893 186.303628 101.656465 148.195395 101.656465"></polygon>
                <polygon id="Fill-19" fill="#C1C1C1" points="148.195395 108.00907 186.303628 108.00907 186.303628 105.894 148.195395 105.894"></polygon>
                <polygon id="Fill-20" fill="#C1C1C1" points="148.195395 112.239209 186.303628 112.239209 186.303628 110.12414 148.195395 110.12414"></polygon>
                <path d="M118.569628,152.469907 C110.101953,152.469907 102.307256,160.05014 102.307256,169.405256 L118.569628,169.405256 L118.569628,152.469907" id="Fill-21" fill="#C1C1C1"></path>
                <path d="M206.966233,126.120279 C200.953814,120.10786 191.206744,120.10786 185.194326,126.120279 L152.455116,158.859488 L141.532186,147.936558 C135.519767,141.916744 125.772698,141.916744 119.760279,147.936558 C113.74786,153.941581 113.74786,163.696047 119.760279,169.708465 L141.569163,191.517349 C144.57907,194.527256 148.513395,196.028512 152.455116,196.028512 C156.396837,196.028512 160.338558,194.527256 163.34107,191.517349 L163.363256,191.502558 L206.966233,147.892186 C212.978651,141.887163 212.978651,132.132698 206.966233,126.120279" id="Fill-22" fill="#72A241"></path>
            </g>
        </g>
    </g>
</svg>