<?xml version="1.0" encoding="UTF-8"?>
<svg width="318px" height="318px" viewBox="0 0 318 318" version="1.1" xmlns="http://www.w3.org/2000/svg" xmlns:xlink="http://www.w3.org/1999/xlink">
    <!-- Generator: Sketch 44.1 (41455) - http://www.bohemiancoding.com/sketch -->
    <title>disciplines</title>
    <desc>Created with Sketch.</desc>
    <defs></defs>
    <g id="Symbols" stroke="none" stroke-width="1" fill="none" fill-rule="evenodd">
        <g id="disciplines">
            <g>
                <path d="M158.63,0.474 L158.63,0.474 C245.768667,0.474 317.064,71.7693333 317.064,158.908 C317.064,246.047333 245.768667,317.342667 158.63,317.342667 C71.4913333,317.342667 0.196,246.047333 0.196,158.908 C0.196,71.7693333 71.4913333,0.474 158.63,0.474" id="Fill-1" fill="#7F8C8D"></path>
                <polyline id="Fill-2" fill="#5DDDD3" points="106.740667 109.718 106.740667 231.666667 133.578 208.093333 133.578 86.1446667 130.084667 86.1446667 128.226667 87.5626667 110.586667 87.5626667 110.58 86.1213333 107.678667 86.1446667 80.8393333 109.718 106.740667 109.718"></polyline>
                <polyline id="Fill-3" fill="#FFFFFF" points="84.5373333 109.718 103.694667 109.718 128.226667 87.5626667 109.071333 87.5626667 84.5373333 109.718"></polyline>
                <polyline id="Fill-4" fill="#FF757C" points="113.521333 103.764 110.344 103.713333 103.694667 109.718 84.5393333 109.718 91.5006667 103.431333 88.058 103.380667 80.8413333 109.718 80.8413333 231.666667 106.740667 231.666667 113.521333 225.712667 113.521333 103.764"></polyline>
                <polyline id="Fill-5" fill="#ECF0F1" points="148.41 109.718 148.41 231.666667 175.246667 208.093333 175.246667 86.1446667 171.755333 86.1446667 169.897333 87.5653333 152.257333 87.5653333 152.250667 86.1213333 149.349333 86.1446667 122.51 109.718 148.412 109.718 148.41 109.718"></polyline>
                <polyline id="Fill-6" fill="#FFFFFF" points="126.208 109.718 145.363333 109.718 169.897333 87.5626667 150.742 87.5626667 126.208 109.718"></polyline>
                <polyline id="Fill-7" fill="#FF757C" points="155.19 103.764 152.012667 103.713333 145.365333 109.718 126.208 109.718 133.169333 103.431333 129.726667 103.380667 122.51 109.718 122.51 231.666667 148.41 231.666667 155.19 225.712667 155.19 103.764"></polyline>
                <polyline id="Fill-8" fill="#5DDDD3" points="205.050667 81.8126667 185.179333 111.494667 216.548667 229.338667 236.42 199.656667 205.050667 81.8126667 201.677333 82.7126667 200.247333 84.56 183.198667 89.0986667 182.824 87.706 180.023333 88.4753333 160.152667 118.157333 185.179333 111.494667 205.050667 81.8126667"></polyline>
                <polyline id="Fill-9" fill="#FFFFFF" points="163.726 117.206667 182.236 112.280667 200.244667 84.56 181.734667 89.4866667 163.726 117.208667 163.726 117.206667"></polyline>
                <polyline id="Fill-10" fill="#FF757C" points="190.200667 103.996 187.116 104.766667 182.236 112.280667 163.726 117.206667 168.837333 109.341333 165.498 110.178 160.154667 118.158667 191.524 236.003333 216.550667 229.340667 221.57 221.841333 190.202667 103.996 190.200667 103.996"></polyline>
                <polyline id="Fill-11" fill="#FFFFFF" points="210.862 114.568667 209.288 108.574 198.184 126.728 199.758 132.724667 210.862 114.568667"></polyline>
                <polyline id="Fill-12" fill="#FFFFFF" points="204.865333 111.164 204.028667 107.268 196.534667 119.524667 197.373333 123.418 204.865333 111.166 204.865333 111.164"></polyline>
            </g>
        </g>
    </g>
</svg>