<?xml version="1.0" encoding="UTF-8"?>
<svg width="311px" height="318px" viewBox="0 0 311 318" version="1.1" xmlns="http://www.w3.org/2000/svg" xmlns:xlink="http://www.w3.org/1999/xlink">
    <!-- Generator: Sketch 44.1 (41455) - http://www.bohemiancoding.com/sketch -->
    <title>login</title>
    <desc>Created with Sketch.</desc>
    <defs></defs>
    <g id="Symbols" stroke="none" stroke-width="1" fill="none" fill-rule="evenodd">
        <g id="login">
            <g>
                <path d="M157.120909,6.53345455 L157.120909,6.53345455 C241.629409,6.53345455 310.772727,75.6767727 310.772727,160.185273 C310.772727,244.693773 241.629409,313.837091 157.120909,313.837091 C72.6124091,313.837091 3.46909091,244.693773 3.46909091,160.185273 C3.46909091,75.6767727 72.6124091,6.53345455 157.120909,6.53345455" id="Fill-1" fill="#00A3DB"></path>
                <path d="M157.120909,90.6083182 L157.120909,90.6083182 C177.133227,90.6083182 193.503,106.978091 193.503,126.997636 C193.503,147.002727 177.133227,163.379727 157.120909,163.379727 C137.108591,163.379727 120.738818,147.002727 120.738818,126.997636 C120.738818,106.978091 137.108591,90.6083182 157.120909,90.6083182" id="Fill-2" fill="#FFFFFF"></path>
                <path d="M97.9223182,229.755 L216.326727,229.755 L216.326727,229.191273 C216.326727,196.675773 189.715909,170.072182 157.200409,170.072182 L157.041409,170.072182 C124.525909,170.072182 97.9223182,196.675773 97.9223182,229.191273 L97.9223182,229.755" id="Fill-3" fill="#FFFFFF"></path>
            </g>
        </g>
    </g>
</svg>