<?xml version="1.0" encoding="UTF-8"?>
<svg width="318px" height="318px" viewBox="0 0 318 318" version="1.1" xmlns="http://www.w3.org/2000/svg" xmlns:xlink="http://www.w3.org/1999/xlink">
    <!-- Generator: Sketch 44.1 (41455) - http://www.bohemiancoding.com/sketch -->
    <title>nivel</title>
    <desc>Created with Sketch.</desc>
    <defs></defs>
    <g id="Symbols" stroke="none" stroke-width="1" fill="none" fill-rule="evenodd">
        <g id="nivel">
            <g>
                <path d="M159.101182,7.0755 L159.101182,7.0755 C243.609682,7.0755 312.753,76.2188182 312.753,160.727318 C312.753,245.235818 243.609682,314.379136 159.101182,314.379136 C74.5926818,314.379136 5.44936364,245.235818 5.44936364,160.727318 C5.44936364,76.2188182 74.5926818,7.0755 159.101182,7.0755" id="Fill-1" fill="#2C1E39"></path>
                <path d="M159.101182,7.0755 L159.101182,7.0755 C243.609682,7.0755 312.753,76.2188182 312.753,160.727318 C312.753,245.235818 243.609682,314.379136 159.101182,314.379136 C74.5926818,314.379136 5.44936364,245.235818 5.44936364,160.727318 C5.44936364,76.2188182 74.5926818,7.0755 159.101182,7.0755 Z" id="Stroke-2" stroke="#1A1918" stroke-width="0.051"></path>
                <polyline id="Fill-3" fill="#FEDA44" points="97.5248182 160.243091 89.0761364 160.243091 89.0761364 189.484636 80.9526818 189.484636 80.9526818 160.243091 72.504 160.243091 72.504 197.933318 130.343864 197.933318 130.343864 172.9125 97.5248182 172.9125 97.5248182 160.243091"></polyline>
                <polyline id="Fill-4" fill="#FF9811" points="72.504 160.243091 80.9526818 160.243091 80.9526818 131.97 89.0761364 131.97 89.0761364 160.243091 97.5248182 160.243091 97.5248182 123.528545 72.504 123.528545 72.504 160.243091"></polyline>
                <polyline id="Fill-5" fill="#FF9811" points="146.590773 160.243091 155.039455 160.243091 155.039455 131.97 163.162909 131.97 163.162909 160.243091 171.611591 160.243091 171.611591 123.528545 146.590773 123.528545 146.590773 160.243091"></polyline>
                <polyline id="Fill-6" fill="#FF9811" points="187.8585 160.243091 196.307182 160.243091 196.307182 131.97 204.430636 131.97 204.430636 160.243091 212.879318 160.243091 212.879318 123.528545 187.8585 123.528545 187.8585 160.243091"></polyline>
                <path d="M212.879318,160.243091 L204.430636,160.243091 L204.430636,172.9125 C193.770409,172.9125 195.981955,171.351409 195.981955,181.035955 L187.8585,181.035955 L187.8585,189.484636 L171.611591,189.484636 L171.611591,181.035955 L163.488136,181.035955 L163.488136,172.9125 L155.039455,172.9125 L155.039455,160.243091 L146.590773,160.243091 L146.590773,173.237727 L154.714227,173.237727 C154.714227,183.189682 152.871273,181.361182 163.162909,181.361182 C163.162909,192.021409 161.601818,189.809864 171.286364,189.809864 L171.286364,197.933318 L188.183727,197.933318 L188.183727,189.809864 L196.307182,189.809864 L196.307182,181.361182 C206.967409,181.361182 204.755864,182.9295 204.755864,173.237727 L212.879318,173.237727 L212.879318,160.243091" id="Fill-7" fill="#FEDA44"></path>
                <polygon id="Fill-8" fill="#FEDA44" points="229.126227 197.933318 245.698364 197.933318 245.698364 181.035955 229.126227 181.035955"></polygon>
                <polyline id="Fill-9" fill="#FEDA44" points="196.307182 160.243091 187.8585 160.243091 187.8585 164.463818 171.611591 164.463818 171.611591 160.243091 163.162909 160.243091 163.162909 164.789045 171.286364 164.789045 171.286364 173.237727 188.183727 173.237727 188.183727 164.789045 196.307182 164.789045 196.307182 160.243091"></polyline>
            </g>
        </g>
    </g>
</svg>