<?xml version="1.0" encoding="UTF-8"?>
<svg width="231px" height="222px" viewBox="0 0 231 222" version="1.1" xmlns="http://www.w3.org/2000/svg" xmlns:xlink="http://www.w3.org/1999/xlink">
    <!-- Generator: Sketch 44.1 (41455) - http://www.bohemiancoding.com/sketch -->
    <title>Artboard</title>
    <desc>Created with Sketch.</desc>
    <defs>
        <path d="M155.771429,66.3559041 L155.771429,38.5754658 C155.771429,17.85724 138.839752,0.904326633 118.125466,0.904326633 C97.4111801,0.904326633 80.4614907,17.85724 80.4614907,38.5754658 L80.4614907,66.3559041 C80.0832298,66.3559041 59.0086957,66.3559041 57.4956522,66.3559041 C54.1453416,75.5620027 7.45714286,204.573494 0.954658385,222.589342 C11.1136646,222.589342 220.742236,222.589342 230.991304,222.589342 C224.398758,204.573494 177.674534,75.5620027 174.378261,66.3559041 C173.345549,66.3559041 167.143271,66.3559041 155.771429,66.3559041 Z M97.1229814,66.3559041 L97.1229814,40.4851457 C97.1229814,28.9369869 106.561491,19.4786664 118.125466,19.4786664 C129.671429,19.4786664 139.12795,28.9369869 139.12795,40.4851457 L139.12795,66.3559041 L97.1229814,66.3559041 Z" id="path-1"></path>
    </defs>
    <g id="Page-1" stroke="none" stroke-width="1" fill="none" fill-rule="evenodd">
        <g id="Artboard">
            <g id="peso">
                <g id="Fill-2">
                    <mask id="mask-2" fill="white">
                        <use xlink:href="#path-1"></use>
                    </mask>
                    <use id="Mask" fill="#636462" xlink:href="#path-1"></use>
                    <polygon fill="#595A59" mask="url(#mask-2)" points="116.396273 222.589342 230.991304 222.589342 230.991304 0.904326633 116.396273 0.904326633"></polygon>
                </g>
                <path d="M76.2829654,161.071609 L76.2829654,117.56458 L82.0412488,117.56458 L82.0412488,139.14003 L103.649653,117.56458 L111.455985,117.56458 L93.2016332,135.19294 L112.257396,161.071609 L104.658836,161.071609 L89.1648984,139.050998 L82.0412488,145.995503 L82.0412488,161.071609 L76.2829654,161.071609 Z M137.425401,144.007119 L137.425401,138.902611 L155.857845,138.872934 L155.857845,155.017425 C153.028159,157.272916 150.10947,158.969456 147.101692,160.107094 C144.093914,161.244732 141.00703,161.813543 137.840948,161.813543 C133.566736,161.813543 129.683397,160.8985 126.190812,159.068386 C122.698228,157.238272 120.061514,154.592066 118.280593,151.129689 C116.499672,147.667311 115.609224,143.799399 115.609224,139.525836 C115.609224,135.291843 116.494725,131.339846 118.265752,127.669725 C120.036779,123.999605 122.584448,121.274261 125.908834,119.493609 C129.233221,117.712958 133.062144,116.822646 137.395719,116.822646 C140.542014,116.822646 143.386498,117.332102 145.929258,118.35103 C148.472018,119.369959 150.46563,120.789512 151.910155,122.609733 C153.354681,124.429955 154.452899,126.804121 155.204843,129.732303 L150.010516,131.156817 C149.357511,128.940895 148.546215,127.19984 147.576602,125.933599 C146.606989,124.667358 145.221849,123.653391 143.42114,122.891668 C141.62043,122.129945 139.621871,121.74909 137.425401,121.74909 C134.793595,121.74909 132.518008,122.14973 130.59857,122.951023 C128.679133,123.752316 127.130744,124.805852 125.953357,126.111663 C124.77597,127.417474 123.860788,128.851866 123.207784,130.414882 C122.099655,133.105644 121.545599,136.02389 121.545599,139.169708 C121.545599,143.04757 122.213435,146.292264 123.549125,148.903886 C124.884816,151.515508 126.82896,153.45441 129.381614,154.720651 C131.934267,155.986892 134.645185,156.620003 137.514447,156.620003 C140.007737,156.620003 142.441626,156.140223 144.816188,155.18065 C147.190749,154.221077 148.991432,153.197218 150.218289,152.109042 L150.218289,144.007119 L137.425401,144.007119 Z" id="KG" fill="#FFFFFF"></path>
            </g>
        </g>
    </g>
</svg>