<?xml version="1.0" encoding="UTF-8"?>
<svg width="311px" height="318px" viewBox="0 0 311 318" version="1.1" xmlns="http://www.w3.org/2000/svg" xmlns:xlink="http://www.w3.org/1999/xlink">
    <!-- Generator: Sketch 44.1 (41455) - http://www.bohemiancoding.com/sketch -->
    <title>points</title>
    <desc>Created with Sketch.</desc>
    <defs></defs>
    <g id="Symbols" stroke="none" stroke-width="1" fill="none" fill-rule="evenodd">
        <g id="points">
            <g>
                <path d="M156.716182,6.19377273 L156.716182,6.19377273 C241.224682,6.19377273 310.368,75.3370909 310.368,159.845591 C310.368,244.354091 241.224682,313.497409 156.716182,313.497409 C72.2076818,313.497409 3.06436364,244.354091 3.06436364,159.845591 C3.06436364,75.3370909 72.2076818,6.19377273 156.716182,6.19377273" id="Fill-1" fill="#B73163"></path>
                <path d="M156.708955,210.537682 C118.397182,210.537682 87.3415909,202.631045 87.3415909,194.522045 L87.3415909,213.197318 C87.3632727,221.299091 118.411636,229.220182 156.708955,229.220182 C195.0135,229.220182 226.061864,221.299091 226.083545,213.197318 L226.083545,194.522045 C226.083545,202.631045 195.027955,210.537682 156.708955,210.537682" id="Fill-2" fill="#E4AF18"></path>
                <path d="M148.715591,181.1805 C110.396591,181.1805 79.341,173.288318 79.341,165.172091 L79.341,183.840136 C79.3699091,191.949136 110.411045,199.870227 148.715591,199.870227 C187.012909,199.870227 218.061273,191.949136 218.090182,183.840136 L218.090182,165.172091 C218.090182,173.288318 187.027364,181.1805 148.715591,181.1805" id="Fill-3" fill="#F4BF1A"></path>
                <path d="M164.731227,151.830545 C126.412227,151.830545 95.3566364,143.938364 95.3566364,135.836591 L95.3566364,154.490182 C95.3710909,162.591955 126.426682,170.513045 164.731227,170.513045 C203.028545,170.513045 234.076909,162.591955 234.084136,154.490182 L234.084136,135.836591 C234.084136,143.938364 203.028545,151.830545 164.731227,151.830545" id="Fill-4" fill="#E4AF18"></path>
                <path d="M218.090182,104.166682 C218.090182,112.268455 187.027364,119.828182 148.715591,119.828182 C110.396591,119.828182 79.341,112.268455 79.341,104.166682 C79.341,96.0504545 110.396591,90.471 148.715591,90.471 C187.027364,90.471 218.090182,96.0504545 218.090182,104.166682" id="Fill-5" fill="#FFD949"></path>
                <path d="M148.715591,119.828182 C110.396591,119.828182 79.341,111.914318 79.341,103.812545 L79.341,122.480591 C79.3699091,130.582364 110.411045,138.489 148.715591,138.489 C187.012909,138.489 218.061273,130.582364 218.090182,122.480591 L218.090182,103.812545 C218.090182,111.914318 187.027364,119.828182 148.715591,119.828182" id="Fill-6" fill="#F4BF1A"></path>
                <path d="M90.0084545,112.022727 L90.0084545,130.676318 C91.6418182,131.276182 93.4125,131.847136 95.3566364,132.396409 L95.3566364,113.742818 C93.4125,113.179091 91.6418182,112.608136 90.0084545,112.022727" id="Fill-7" fill="#DCA814"></path>
                <path d="M202.074545,113.742818 L202.074545,132.396409 C204.004227,131.847136 205.789364,131.276182 207.408273,130.676318 L207.408273,112.022727 C205.789364,112.608136 204.004227,113.179091 202.074545,113.742818" id="Fill-8" fill="#DCA814"></path>
                <path d="M103.35,115.665273 L103.35,134.333318 C105.055636,134.701909 106.848,135.027136 108.698182,135.352364 L108.698182,116.684318 C106.848,116.359091 105.055636,116.033864 103.35,115.665273" id="Fill-9" fill="#DCA814"></path>
                <path d="M188.740227,116.684318 L188.740227,135.352364 C190.583182,135.027136 192.361091,134.701909 194.066727,134.333318 L194.066727,115.665273 C192.361091,116.033864 190.583182,116.359091 188.740227,116.684318" id="Fill-10" fill="#DCA814"></path>
                <path d="M116.691545,117.869591 L116.691545,136.537636 C118.440545,136.761682 120.211227,136.964045 122.039727,137.166409 L122.039727,118.491136 C120.211227,118.303227 118.440545,118.093636 116.691545,117.869591" id="Fill-11" fill="#DCA814"></path>
                <path d="M175.398682,118.491136 L175.398682,137.166409 C177.219955,136.964045 178.990636,136.761682 180.725182,136.537636 L180.725182,117.869591 C178.990636,118.093636 177.219955,118.303227 175.398682,118.491136" id="Fill-12" fill="#DCA814"></path>
                <path d="M130.033091,119.1705 L130.033091,137.853 C131.796545,137.975864 133.567227,138.084273 135.374045,138.171 L135.374045,119.495727 C133.567227,119.409 131.796545,119.307818 130.033091,119.1705" id="Fill-13" fill="#DCA814"></path>
                <path d="M162.057136,119.495727 L162.057136,138.171 C163.856727,138.084273 165.641864,137.975864 167.383636,137.853 L167.383636,119.1705 C165.641864,119.307818 163.856727,119.409 162.057136,119.495727" id="Fill-14" fill="#DCA814"></path>
                <path d="M148.715591,119.828182 C147.812182,119.828182 146.930455,119.813727 146.0415,119.813727 L146.0415,138.481773 C146.930455,138.489 147.812182,138.489 148.715591,138.489 C149.597318,138.489 150.500727,138.489 151.389682,138.481773 L151.389682,119.813727 C150.500727,119.813727 149.597318,119.828182 148.715591,119.828182" id="Fill-15" fill="#DCA814"></path>
                <path d="M106.024091,144.032318 L106.024091,162.700364 C107.650227,163.300227 109.428136,163.871182 111.365045,164.420455 L111.365045,145.745182 C109.428136,145.203136 107.650227,144.624955 106.024091,144.032318" id="Fill-16" fill="#C49213"></path>
                <path d="M218.090182,145.745182 L218.090182,164.420455 C220.019864,163.871182 221.797773,163.300227 223.416682,162.700364 L223.416682,144.032318 C221.797773,144.624955 220.019864,145.203136 218.090182,145.745182" id="Fill-17" fill="#C49213"></path>
                <path d="M119.365636,147.689318 L119.365636,166.357364 C121.071273,166.7115 122.856409,167.051182 124.706591,167.361955 L124.706591,148.693909 C122.856409,148.383136 121.071273,148.043455 119.365636,147.689318" id="Fill-18" fill="#C49213"></path>
                <path d="M204.748636,148.693909 L204.748636,167.376409 C206.598818,167.051182 208.3695,166.7115 210.075136,166.357364 L210.075136,147.689318 C208.3695,148.043455 206.598818,148.383136 204.748636,148.693909" id="Fill-19" fill="#C49213"></path>
                <path d="M132.707182,149.893636 L132.707182,168.561682 C134.448955,168.7785 136.226864,168.995318 138.048136,169.183227 L138.048136,150.507955 C136.226864,150.320045 134.448955,150.110455 132.707182,149.893636" id="Fill-20" fill="#C49213"></path>
                <path d="M191.407091,150.507955 L191.407091,169.183227 C193.221136,168.995318 195.006273,168.7785 196.733591,168.561682 L196.733591,149.893636 C195.006273,150.110455 193.221136,150.320045 191.407091,150.507955" id="Fill-21" fill="#C49213"></path>
                <path d="M146.0415,151.194545 L146.0415,169.862591 C147.804955,169.992682 149.575636,170.101091 151.389682,170.187818 L151.389682,151.505318 C149.575636,151.425818 147.804955,151.310182 146.0415,151.194545" id="Fill-22" fill="#C49213"></path>
                <path d="M178.065545,151.505318 L178.065545,170.187818 C179.865136,170.101091 181.650273,169.992682 183.392045,169.862591 L183.392045,151.194545 C181.650273,151.310182 179.865136,151.425818 178.065545,151.505318" id="Fill-23" fill="#C49213"></path>
                <path d="M164.731227,151.830545 C163.827818,151.830545 162.938864,151.830545 162.057136,151.823318 L162.057136,170.498591 C162.938864,170.498591 163.827818,170.513045 164.731227,170.513045 C165.612955,170.513045 166.501909,170.498591 167.383636,170.498591 L167.383636,151.823318 C166.501909,151.830545 165.612955,151.830545 164.731227,151.830545" id="Fill-24" fill="#C49213"></path>
                <path d="M90.0084545,173.382273 L90.0084545,192.050318 C91.6418182,192.635727 93.4125,193.213909 95.3566364,193.770409 L95.3566364,175.102364 C93.4125,174.553091 91.6418182,173.982136 90.0084545,173.382273" id="Fill-25" fill="#DCA814"></path>
                <path d="M202.074545,175.102364 L202.074545,193.770409 C204.004227,193.221136 205.789364,192.635727 207.408273,192.050318 L207.408273,173.382273 C205.789364,173.982136 204.004227,174.553091 202.074545,175.102364" id="Fill-26" fill="#DCA814"></path>
                <path d="M103.35,177.039273 L103.35,195.714545 C105.055636,196.061455 106.848,196.401136 108.698182,196.711909 L108.698182,178.043864 C106.848,177.733091 105.055636,177.393409 103.35,177.039273" id="Fill-27" fill="#DCA814"></path>
                <path d="M188.740227,178.043864 L188.740227,196.711909 C190.583182,196.401136 192.361091,196.061455 194.066727,195.714545 L194.066727,177.039273 C192.361091,177.393409 190.583182,177.733091 188.740227,178.043864" id="Fill-28" fill="#DCA814"></path>
                <path d="M116.691545,179.243591 L116.691545,197.911636 C118.440545,198.135682 120.211227,198.345273 122.039727,198.525955 L122.039727,179.857909 C120.211227,179.67 118.440545,179.467636 116.691545,179.243591" id="Fill-29" fill="#DCA814"></path>
                <path d="M175.398682,179.857909 L175.398682,198.525955 C177.219955,198.345273 178.990636,198.135682 180.725182,197.911636 L180.725182,179.243591 C178.990636,179.467636 177.219955,179.67 175.398682,179.857909" id="Fill-30" fill="#DCA814"></path>
                <path d="M130.033091,180.5445 L130.033091,199.212545 C131.796545,199.349864 133.567227,199.451045 135.374045,199.537773 L135.374045,180.8625 C133.567227,180.768545 131.796545,180.660136 130.033091,180.5445" id="Fill-31" fill="#DCA814"></path>
                <path d="M162.057136,180.8625 L162.057136,199.537773 C163.856727,199.451045 165.641864,199.349864 167.383636,199.212545 L167.383636,180.5445 C165.641864,180.660136 163.856727,180.768545 162.057136,180.8625" id="Fill-32" fill="#DCA814"></path>
                <path d="M148.715591,181.1805 C147.812182,181.1805 146.930455,181.1805 146.0415,181.166045 L146.0415,199.855773 C146.930455,199.855773 147.812182,199.870227 148.715591,199.870227 C149.597318,199.870227 150.500727,199.855773 151.389682,199.855773 L151.389682,181.166045 C150.500727,181.1805 149.597318,181.1805 148.715591,181.1805" id="Fill-33" fill="#DCA814"></path>
                <path d="M98.0235,202.732227 L98.0235,221.385818 C99.6424091,221.985682 101.427545,222.556636 103.35,223.120364 L103.35,204.452318 C101.427545,203.903045 99.6424091,203.317636 98.0235,202.732227" id="Fill-34" fill="#C49213"></path>
                <path d="M210.075136,204.452318 L210.075136,223.120364 C212.019273,222.556636 213.782727,221.985682 215.416091,221.385818 L215.416091,202.732227 C213.782727,203.332091 212.019273,203.903045 210.075136,204.452318" id="Fill-35" fill="#C49213"></path>
                <path d="M111.365045,206.389227 L111.365045,225.057273 C113.070682,225.411409 114.848591,225.751091 116.691545,226.061864 L116.691545,207.401045 C114.848591,207.083045 113.070682,206.743364 111.365045,206.389227" id="Fill-36" fill="#C49213"></path>
                <path d="M196.733591,207.401045 L196.733591,226.061864 C198.583773,225.751091 200.368909,225.411409 202.074545,225.057273 L202.074545,206.389227 C200.368909,206.743364 198.583773,207.083045 196.733591,207.401045" id="Fill-37" fill="#C49213"></path>
                <path d="M124.706591,208.579091 L124.706591,227.261591 C126.441136,227.485636 128.211818,227.695227 130.033091,227.875909 L130.033091,209.207864 C128.211818,209.012727 126.441136,208.803136 124.706591,208.579091" id="Fill-38" fill="#C49213"></path>
                <path d="M183.392045,209.207864 L183.392045,227.875909 C185.220545,227.695227 186.991227,227.485636 188.740227,227.261591 L188.740227,208.579091 C186.991227,208.817591 185.220545,209.027182 183.392045,209.207864" id="Fill-39" fill="#C49213"></path>
                <path d="M138.048136,209.901682 L138.048136,228.5625 C139.789909,228.685364 141.575045,228.801 143.374636,228.887727 L143.374636,210.212455 C141.575045,210.1185 139.789909,210.017318 138.048136,209.901682" id="Fill-40" fill="#C49213"></path>
                <path d="M170.0505,210.212455 L170.0505,228.887727 C171.864545,228.801 173.635227,228.685364 175.398682,228.5625 L175.398682,209.901682 C173.635227,210.017318 171.864545,210.1185 170.0505,210.212455" id="Fill-41" fill="#C49213"></path>
                <path d="M156.708955,210.537682 C155.827227,210.537682 154.931045,210.523227 154.042091,210.523227 L154.042091,229.191273 C154.931045,229.205727 155.827227,229.220182 156.708955,229.220182 C157.612364,229.220182 158.501318,229.205727 159.383045,229.191273 L159.383045,210.523227 C158.501318,210.523227 157.612364,210.537682 156.708955,210.537682" id="Fill-42" fill="#C49213"></path>
                <path d="M215.979818,187.518818 C208.405636,194.189591 181.166045,199.870227 148.715591,199.870227 C123.340636,199.870227 101.167364,196.386682 89.0616818,191.688955 C87.9559091,192.700773 87.3415909,193.755955 87.3415909,194.876182 C87.3415909,202.977955 118.397182,210.537682 156.708955,210.537682 C195.027955,210.537682 226.083545,202.977955 226.083545,194.876182 C226.083545,192.079227 222.390409,189.585818 215.979818,187.518818" id="Fill-43" fill="#FCC62D"></path>
                <path d="M164.731227,170.513045 C129.476591,170.513045 100.386818,163.806136 95.9492727,156.419864 C85.6070455,158.7615 79.341,161.890909 79.341,165.526227 C79.341,173.628 110.396591,181.1805 148.715591,181.1805 C187.027364,181.1805 218.090182,173.628 218.090182,165.526227 C218.090182,165.172091 217.996227,164.817955 217.880591,164.471045 C205.167818,168.055773 186.066136,170.513045 164.731227,170.513045" id="Fill-44" fill="#FFD949"></path>
                <path d="M215.394409,126.621818 C207.090273,133.075773 180.399955,138.489 148.715591,138.489 C128.247955,138.489 109.861773,136.241318 97.1706818,132.895091 C95.9926364,133.935818 95.3566364,135.027136 95.3566364,136.176273 C95.3566364,144.278045 126.412227,151.830545 164.731227,151.830545 C203.028545,151.830545 234.084136,144.278045 234.084136,136.176273 C234.084136,132.309682 226.986955,129.006818 215.394409,126.621818" id="Fill-45" fill="#FCC62D"></path>
            </g>
        </g>
    </g>
</svg>