<?xml version="1.0" encoding="UTF-8"?>
<svg width="318px" height="318px" viewBox="0 0 318 318" version="1.1" xmlns="http://www.w3.org/2000/svg" xmlns:xlink="http://www.w3.org/1999/xlink">
    <!-- Generator: Sketch 44.1 (41455) - http://www.bohemiancoding.com/sketch -->
    <title>questoes</title>
    <desc>Created with Sketch.</desc>
    <defs></defs>
    <g id="Symbols" stroke="none" stroke-width="1" fill="none" fill-rule="evenodd">
        <g id="questoes">
            <g>
                <path d="M159.266233,2.56618605 L159.266233,2.56618605 C245.740047,2.56618605 316.491349,73.3174884 316.491349,159.791302 C316.491349,246.265116 245.740047,317.016419 159.266233,317.016419 C72.7924186,317.016419 2.04111628,246.265116 2.04111628,159.791302 C2.04111628,73.3174884 72.7924186,2.56618605 159.266233,2.56618605" id="Fill-1" fill="#1A1918"></path>
                <path d="M191.354651,64.5244186 L89.7351628,64.5244186 C87.4130233,64.5244186 84.8394419,66.4250233 84.8394419,68.7545581 L84.8394419,250.820651 C84.8394419,253.157581 87.4130233,255.058186 89.7351628,255.058186 L229.462884,255.058186 C231.792419,255.058186 233.034837,253.157581 233.034837,250.820651 L233.034837,108.97786 L191.354651,64.5244186" id="Fill-2" fill="#F8F8F8"></path>
                <path d="M195.592186,108.97786 C193.262651,108.97786 190.68907,107.077256 190.68907,104.747721 L190.68907,64.5244186 L233.700419,108.97786 L195.592186,108.97786" id="Fill-3" fill="#FFFFFF"></path>
                <path d="M114.48,83.5748372 C106.012326,83.5748372 98.2102326,91.1624651 98.2102326,100.510186 L114.48,100.510186 L114.48,83.5748372" id="Fill-4" fill="#C1C1C1"></path>
                <path d="M116.59507,85.689907 L116.59507,102.632651 L100.325302,102.632651 C100.325302,111.980372 107.91293,119.568 117.260651,119.568 C126.615767,119.568 133.863209,111.980372 133.863209,102.632651 C133.863209,93.2775349 127.177814,85.689907 116.59507,85.689907" id="Fill-5" fill="#C1C1C1"></path>
                <path d="M116.59507,202.129674 L116.59507,219.065023 L100.325302,219.065023 C100.325302,228.42014 107.91293,236.000372 117.260651,236.000372 C126.615767,236.000372 133.863209,228.42014 133.863209,219.065023 C133.863209,209.717302 127.177814,202.129674 116.59507,202.129674" id="Fill-6" fill="#C1C1C1"></path>
                <polygon id="Fill-7" fill="#C1C1C1" points="144.105767 92.0425116 182.214 92.0425116 182.214 87.8123721 144.105767 87.8123721"></polygon>
                <polygon id="Fill-8" fill="#C1C1C1" points="120.817814 157.676233 213.969628 157.676233 213.969628 153.438698 120.817814 153.438698"></polygon>
                <polygon id="Fill-9" fill="#C1C1C1" points="144.105767 100.510186 182.214 100.510186 182.214 98.3951163 144.105767 98.3951163"></polygon>
                <polygon id="Fill-10" fill="#C1C1C1" points="120.817814 164.021442 197.034279 164.021442 197.034279 161.906372 120.817814 161.906372"></polygon>
                <polygon id="Fill-11" fill="#C1C1C1" points="144.105767 210.604744 211.854558 210.604744 211.854558 208.482279 144.105767 208.482279"></polygon>
                <polygon id="Fill-12" fill="#C1C1C1" points="144.105767 216.949953 211.854558 216.949953 211.854558 214.834884 144.105767 214.834884"></polygon>
                <polygon id="Fill-13" fill="#C1C1C1" points="144.105767 223.302558 211.854558 223.302558 211.854558 221.187488 144.105767 221.187488"></polygon>
                <polygon id="Fill-14" fill="#C1C1C1" points="144.105767 229.647767 211.854558 229.647767 211.854558 227.532698 144.105767 227.532698"></polygon>
                <polygon id="Fill-15" fill="#C1C1C1" points="144.105767 236.000372 211.854558 236.000372 211.854558 233.885302 144.105767 233.885302"></polygon>
                <polygon id="Fill-16" fill="#C1C1C1" points="120.817814 170.374047 209.732093 170.374047 209.732093 168.258977 120.817814 168.258977"></polygon>
                <polygon id="Fill-17" fill="#C1C1C1" points="120.817814 176.726651 171.631256 176.726651 171.631256 174.611581 120.817814 174.611581"></polygon>
                <polygon id="Fill-18" fill="#C1C1C1" points="144.105767 104.747721 182.214 104.747721 182.214 102.632651 144.105767 102.632651"></polygon>
                <polygon id="Fill-19" fill="#C1C1C1" points="144.105767 108.97786 182.214 108.97786 182.214 106.862791 144.105767 106.862791"></polygon>
                <polygon id="Fill-20" fill="#C1C1C1" points="144.105767 113.215395 182.214 113.215395 182.214 111.100326 144.105767 111.100326"></polygon>
                <path d="M114.48,153.438698 C106.012326,153.438698 98.2102326,161.026326 98.2102326,170.374047 L114.48,170.374047 L114.48,153.438698" id="Fill-21" fill="#C1C1C1"></path>
            </g>
        </g>
    </g>
</svg>