<?xml version="1.0" encoding="UTF-8"?>
<svg width="311px" height="318px" viewBox="0 0 311 318" version="1.1" xmlns="http://www.w3.org/2000/svg" xmlns:xlink="http://www.w3.org/1999/xlink">
    <!-- Generator: Sketch 44.1 (41455) - http://www.bohemiancoding.com/sketch -->
    <title>trophies</title>
    <desc>Created with Sketch.</desc>
    <defs></defs>
    <g id="Symbols" stroke="none" stroke-width="1" fill="none" fill-rule="evenodd">
        <g id="trophies">
            <g>
                <path d="M154.822636,6.201 L154.822636,6.201 C239.323909,6.201 308.467227,75.3443182 308.467227,159.852818 C308.467227,244.361318 239.323909,313.497409 154.822636,313.497409 C70.3141364,313.497409 1.17081818,244.361318 1.17081818,159.852818 C1.17081818,75.3443182 70.3141364,6.201 154.822636,6.201" id="Fill-1" fill="#2C3E50"></path>
                <path d="M139.544182,128.349136 C118.592318,128.349136 100.878273,113.345318 97.4380909,92.6753182 L97.3369091,92.0971364 C96.9610909,89.8277727 97.5537273,87.6306818 99.0064091,85.9178182 C100.415727,84.2555455 102.468273,83.3087727 104.650909,83.3087727 L122.733545,83.3087727 L122.733545,74.2963636 L104.650909,74.2963636 C99.8158636,74.2963636 95.2554545,76.4139545 92.1332727,80.0926364 C88.9894091,83.8146818 87.6451364,88.7292273 88.4545909,93.5859545 L88.5557727,94.1569091 C92.7259091,119.184955 114.169227,137.354318 139.536955,137.354318 L139.551409,137.354318 L139.551409,128.349136 C139.544182,128.349136 139.544182,128.349136 139.544182,128.349136" id="Fill-2" fill="#ECB45F"></path>
                <path d="M216.427909,80.0926364 C213.305727,76.4139545 208.745318,74.2963636 203.910273,74.2963636 L185.827636,74.2963636 L185.827636,83.3087727 L203.910273,83.3087727 C206.092909,83.3087727 208.145455,84.2555455 209.554773,85.9178182 C211.007455,87.6306818 211.600091,89.8277727 211.224273,92.0971364 L211.123091,92.6753182 C207.682909,113.345318 189.976091,128.349136 169.017,128.349136 L169.017,137.354318 C194.399182,137.354318 215.835273,119.184955 220.005409,94.1569091 L220.106591,93.5859545 C220.916045,88.7292273 219.571773,83.8146818 216.427909,80.0926364" id="Fill-3" fill="#FFC36E"></path>
                <polyline id="Fill-4" fill="#FFC36E" points="163.285773 203.411591 145.275409 203.411591 148.274727 140.353636 160.286455 140.353636 163.285773 203.411591"></polyline>
                <polyline id="Fill-5" fill="#ECB45F" points="148.274727 140.353636 145.275409 203.411591 154.280591 203.411591 154.280591 140.353636 148.274727 140.353636"></polyline>
                <path d="M172.298182,215.416091 L136.263,215.416091 L136.263,203.411591 C136.263,201.749318 137.607273,200.405045 139.269545,200.405045 L169.291636,200.405045 C170.953909,200.405045 172.298182,201.749318 172.298182,203.411591 L172.298182,215.416091" id="Fill-6" fill="#FFD782"></path>
                <path d="M154.280591,200.405045 L139.269545,200.405045 C137.607273,200.405045 136.263,201.749318 136.263,203.411591 L136.263,215.416091 L151.274045,215.416091 L151.274045,203.411591 C151.281273,201.749318 152.618318,200.405045 154.280591,200.405045" id="Fill-7" fill="#FFC36E"></path>
                <path d="M184.302682,221.421955 L124.2585,221.421955 L128.479227,215.090864 C129.592227,213.421364 131.464091,212.416773 133.473273,212.416773 L175.087909,212.416773 C177.097091,212.416773 178.968955,213.421364 180.081955,215.090864 L184.302682,221.421955" id="Fill-8" fill="#FFD782"></path>
                <path d="M151.490864,212.416773 L133.473273,212.416773 C131.464091,212.416773 129.592227,213.421364 128.479227,215.090864 L124.2585,221.421955 L142.268864,221.421955 L146.489591,215.090864 C147.609818,213.421364 149.481682,212.416773 151.490864,212.416773" id="Fill-9" fill="#FFC36E"></path>
                <path d="M184.302682,236.433 L124.2585,236.433 C122.596227,236.433 121.251955,235.088727 121.251955,233.433682 L121.251955,221.421955 C121.251955,219.766909 122.596227,218.422636 124.2585,218.422636 L184.302682,218.422636 C185.964955,218.422636 187.309227,219.766909 187.309227,221.421955 L187.309227,233.433682 C187.309227,235.088727 185.964955,236.433 184.302682,236.433" id="Fill-10" fill="#FFD782"></path>
                <path d="M142.268864,233.433682 L142.268864,221.421955 C142.268864,219.766909 143.613136,218.422636 145.275409,218.422636 L124.2585,218.422636 C122.596227,218.422636 121.251955,219.766909 121.251955,221.421955 L121.251955,233.433682 C121.251955,235.088727 122.596227,236.433 124.2585,236.433 L145.275409,236.433 C143.613136,236.433 142.268864,235.088727 142.268864,233.433682" id="Fill-11" fill="#FFC36E"></path>
                <path d="M178.202864,131.760409 L164.911909,142.095409 C163.863955,142.912091 162.563045,143.360182 161.226,143.360182 L147.335182,143.360182 C145.998136,143.360182 144.704455,142.912091 143.649273,142.095409 L130.358318,131.760409 C122.625136,125.740091 117.674455,116.828864 116.648182,107.0865 L112.246773,65.2911818 L196.314409,65.2911818 L191.920227,107.0865 C190.893955,116.828864 185.936045,125.740091 178.202864,131.760409" id="Fill-12" fill="#FFD782"></path>
                <path d="M153.846955,142.095409 L147.674864,131.760409 C144.090136,125.740091 141.784636,116.828864 141.307636,107.0865 L139.269545,65.2911818 L112.246773,65.2911818 L116.648182,107.0865 C117.674455,116.828864 122.625136,125.740091 130.358318,131.760409 L143.649273,142.095409 C144.704455,142.912091 145.998136,143.360182 147.335182,143.360182 L155.559818,143.360182 C154.938273,143.360182 154.338409,142.912091 153.846955,142.095409" id="Fill-13" fill="#FFC36E"></path>
                <path d="M196.314409,68.2977273 L112.246773,68.2977273 C110.591727,68.2977273 109.240227,66.9534545 109.240227,65.2911818 C109.240227,63.6361364 110.591727,62.2918636 112.246773,62.2918636 L196.314409,62.2918636 C197.969455,62.2918636 199.320955,63.6361364 199.320955,65.2911818 C199.320955,66.9534545 197.969455,68.2977273 196.314409,68.2977273" id="Fill-14" fill="#FFD782"></path>
                <path d="M163.285773,164.377091 L145.275409,164.377091 C143.613136,164.377091 142.268864,163.032818 142.268864,161.370545 L142.268864,158.371227 C142.268864,156.708955 143.613136,155.364682 145.275409,155.364682 L163.285773,155.364682 C164.948045,155.364682 166.292318,156.708955 166.292318,158.371227 L166.292318,161.370545 C166.292318,163.032818 164.948045,164.377091 163.285773,164.377091" id="Fill-15" fill="#FFD782"></path>
                <path d="M151.281273,161.370545 L151.281273,158.371227 C151.281273,156.708955 152.618318,155.364682 154.280591,155.364682 L145.275409,155.364682 C143.613136,155.364682 142.268864,156.708955 142.268864,158.371227 L142.268864,161.370545 C142.268864,163.032818 143.613136,164.377091 145.275409,164.377091 L154.280591,164.377091 C152.618318,164.377091 151.281273,163.032818 151.281273,161.370545" id="Fill-16" fill="#FFC36E"></path>
                <polyline id="Fill-17" fill="#FFC36E" points="195.367636 74.2963636 195.996409 68.2977273 112.557545 68.2977273 113.193545 74.2963636 195.367636 74.2963636"></polyline>
                <polyline id="Fill-18" fill="#ECB45F" points="139.414091 68.2977273 112.557545 68.2977273 113.193545 74.2963636 139.710409 74.2963636 139.414091 68.2977273"></polyline>
                <path d="M136.263,65.2911818 C136.263,63.6361364 137.607273,62.2918636 139.269545,62.2918636 L112.246773,62.2918636 C110.591727,62.2918636 109.240227,63.6361364 109.240227,65.2911818 C109.240227,66.9534545 110.591727,68.2977273 112.246773,68.2977273 L139.269545,68.2977273 C137.607273,68.2977273 136.263,66.9534545 136.263,65.2911818" id="Fill-19" fill="#FFC36E"></path>
                <path d="M190.156773,77.4763636 C185.675864,76.4573182 182.148955,72.9304091 181.129909,68.4495 C181.050409,68.1098182 180.602318,68.1098182 180.522818,68.4495 C179.503773,72.9304091 175.976864,76.4573182 171.495955,77.4763636 C171.156273,77.5558636 171.156273,78.0039545 171.495955,78.0834545 C175.976864,79.1025 179.503773,82.6294091 180.522818,87.1103182 C180.602318,87.45 181.050409,87.45 181.129909,87.1103182 C182.148955,82.6294091 185.675864,79.1025 190.156773,78.0834545 C190.496455,78.0039545 190.496455,77.5558636 190.156773,77.4763636" id="Fill-20" fill="#FFFFFF"></path>
                <path d="M177.010364,91.0564091 C173.859273,90.2397273 171.373091,87.7535455 170.556409,84.5952273 C170.476909,84.2772273 170.064955,84.2772273 169.985455,84.5952273 C169.161545,87.7535455 166.682591,90.2397273 163.524273,91.0564091 C163.206273,91.1359091 163.206273,91.5478636 163.524273,91.6273636 C166.682591,92.4440455 169.161545,94.9302273 169.985455,98.0813182 C170.064955,98.3993182 170.476909,98.3993182 170.556409,98.0813182 C171.373091,94.9302273 173.859273,92.4440455 177.010364,91.6273636 C177.328364,91.5478636 177.328364,91.1359091 177.010364,91.0564091" id="Fill-21" fill="#FFFFFF"></path>
            </g>
        </g>
    </g>
</svg>