<?xml version="1.0" encoding="UTF-8"?>
<svg width="318px" height="318px" viewBox="0 0 318 318" version="1.1" xmlns="http://www.w3.org/2000/svg" xmlns:xlink="http://www.w3.org/1999/xlink">
    <!-- Generator: Sketch 44.1 (41455) - http://www.bohemiancoding.com/sketch -->
    <title>videos</title>
    <desc>Created with Sketch.</desc>
    <defs></defs>
    <g id="Symbols" stroke="none" stroke-width="1" fill="none" fill-rule="evenodd">
        <g id="videos">
            <g>
                <path d="M158.179116,1.02795349 L158.179116,1.02795349 C244.65293,1.02795349 315.404233,71.7792558 315.404233,158.25307 C315.404233,244.726884 244.65293,315.478186 158.179116,315.478186 C71.7053023,315.478186 0.954,244.726884 0.954,158.25307 C0.954,71.7792558 71.7053023,1.02795349 158.179116,1.02795349" id="Fill-1" fill="#556080"></path>
                <polyline id="Fill-2" fill="#FFFFFF" points="122.341256 203.29814 122.341256 111.625395 194.379349 157.439581 122.341256 203.29814"></polyline>
                <path d="M86.4294419,277.754512 L229.928791,277.754512 C233.219721,277.754512 235.911628,275.062605 235.911628,271.771674 L235.911628,270.743721 C235.911628,267.452791 233.219721,264.760884 229.928791,264.760884 L86.4294419,264.760884 C83.1385116,264.760884 80.4466047,267.452791 80.4466047,270.743721 L80.4466047,271.771674 C80.4466047,275.062605 83.1385116,277.754512 86.4294419,277.754512" id="Fill-3" fill="#2A303D"></path>
                <path d="M120.011721,277.754512 L120.011721,264.760884 L86.4294419,264.760884 C83.1385116,264.760884 80.4466047,267.452791 80.4466047,270.743721 L80.4466047,271.771674 C80.4466047,275.062605 83.1385116,277.754512 86.4294419,277.754512 L120.011721,277.754512" id="Fill-4" fill="#DD352E"></path>
            </g>
        </g>
    </g>
</svg>