<?xml version="1.0" encoding="UTF-8"?>
<svg width="318px" height="318px" viewBox="0 0 318 318" version="1.1" xmlns="http://www.w3.org/2000/svg" xmlns:xlink="http://www.w3.org/1999/xlink">
    <!-- Generator: Sketch 44.1 (41455) - http://www.bohemiancoding.com/sketch -->
    <title>wrong_answers</title>
    <desc>Created with Sketch.</desc>
    <defs></defs>
    <g id="Symbols" stroke="none" stroke-width="1" fill="none" fill-rule="evenodd">
        <g id="wrong_answers">
            <g>
                <path d="M159.366,0.283 L159.366,0.283 C246.578,0.283 317.933,71.638 317.933,158.85 C317.933,246.062 246.578,317.417 159.366,317.417 C72.155,317.417 0.8,246.062 0.8,158.85 C0.8,71.638 72.155,0.283 159.366,0.283" id="Fill-1" fill="#F39C12"></path>
                <path d="M191.73,62.769 L89.244,62.769 C86.896,62.769 84.299,64.69 84.299,67.038 L84.299,250.658 C84.299,253.009 86.896,254.93 89.244,254.93 L230.161,254.93 C232.512,254.93 233.76,253.009 233.76,250.658 L233.76,107.606 L191.73,62.769" id="Fill-2" fill="#F8F8F8"></path>
                <path d="M195.999,107.606 C193.652,107.606 191.058,105.685 191.058,103.337 L191.058,62.769 L234.433,107.606 L195.999,107.606" id="Fill-3" fill="#FFFFFF"></path>
                <path d="M114.194,81.986 C105.653,81.986 97.788,89.633 97.788,99.065 L114.194,99.065 L114.194,81.986" id="Fill-4" fill="#C1C1C1"></path>
                <path d="M116.329,84.121 L116.329,101.2 L99.922,101.2 C99.922,110.635 107.569,118.282 117.004,118.282 C126.436,118.282 133.747,110.635 133.747,101.2 C133.747,91.768 127.004,84.121 116.329,84.121" id="Fill-5" fill="#C1C1C1"></path>
                <path d="M116.329,201.552 L116.329,218.631 L99.922,218.631 C99.922,228.066 107.569,235.713 117.004,235.713 C126.436,235.713 133.747,228.066 133.747,218.631 C133.747,209.199 127.004,201.552 116.329,201.552" id="Fill-6" fill="#C1C1C1"></path>
                <polygon id="Fill-7" fill="#C1C1C1" points="144.073 90.524 182.507 90.524 182.507 86.255 144.073 86.255"></polygon>
                <polygon id="Fill-8" fill="#C1C1C1" points="120.588 156.715 214.533 156.715 214.533 152.443 120.588 152.443"></polygon>
                <polygon id="Fill-9" fill="#C1C1C1" points="144.073 99.065 182.507 99.065 182.507 96.931 144.073 96.931"></polygon>
                <polygon id="Fill-10" fill="#C1C1C1" points="120.588 163.118 197.451 163.118 197.451 160.984 120.588 160.984"></polygon>
                <polygon id="Fill-11" fill="#C1C1C1" points="144.073 210.092 212.398 210.092 212.398 207.955 144.073 207.955"></polygon>
                <polygon id="Fill-12" fill="#C1C1C1" points="144.073 216.496 212.398 216.496 212.398 214.362 144.073 214.362"></polygon>
                <polygon id="Fill-13" fill="#C1C1C1" points="144.073 222.904 212.398 222.904 212.398 220.769 144.073 220.769"></polygon>
                <polygon id="Fill-14" fill="#C1C1C1" points="144.073 229.306 212.398 229.306 212.398 227.172 144.073 227.172"></polygon>
                <polygon id="Fill-15" fill="#C1C1C1" points="144.073 235.713 212.398 235.713 212.398 233.579 144.073 233.579"></polygon>
                <polygon id="Fill-16" fill="#C1C1C1" points="120.588 169.526 210.261 169.526 210.261 167.391 120.588 167.391"></polygon>
                <polygon id="Fill-17" fill="#C1C1C1" points="120.588 175.929 171.831 175.929 171.831 173.794 120.588 173.794"></polygon>
                <polygon id="Fill-18" fill="#C1C1C1" points="144.073 103.336 182.507 103.336 182.507 101.199 144.073 101.199"></polygon>
                <polygon id="Fill-19" fill="#C1C1C1" points="144.073 107.606 182.507 107.606 182.507 105.472 144.073 105.472"></polygon>
                <polygon id="Fill-20" fill="#C1C1C1" points="144.073 111.875 182.507 111.875 182.507 109.741 144.073 109.741"></polygon>
                <path d="M114.194,152.444 C105.653,152.444 97.788,160.093 97.788,169.525 L114.194,169.525 L114.194,152.444" id="Fill-21" fill="#C1C1C1"></path>
                <path d="M191.413,139.149 L191.413,139.15 C197.903,145.639 197.903,156.259 191.413,162.749 L130.775,223.387 C124.285,229.877 113.665,229.877 107.175,223.387 C100.685,216.897 100.685,206.278 107.175,199.788 L167.813,139.149 C174.303,132.66 184.923,132.66 191.413,139.149" id="Fill-22" fill="#C0392B"></path>
                <path d="M106.934,138.908 L106.934,138.908 C113.387,132.455 123.946,132.455 130.399,138.908 L191.655,200.163 C198.108,206.617 198.107,217.176 191.654,223.629 C185.201,230.081 174.642,230.081 168.189,223.628 L106.934,162.373 C100.481,155.92 100.481,145.361 106.934,138.908" id="Fill-23" fill="#C0392B"></path>
            </g>
        </g>
    </g>
</svg>